<?xml version="1.0" encoding="UTF-8"?>
<!DOCTYPE svg PUBLIC "-//W3C//DTD SVG 1.1//EN" "http://www.w3.org/Graphics/SVG/1.1/DTD/svg11.dtd">
<!-- Creator: CorelDRAW X7 -->
<svg xmlns="http://www.w3.org/2000/svg" xml:space="preserve" width="70mm" height="30mm" version="1.1" style="shape-rendering:geometricPrecision; text-rendering:geometricPrecision; image-rendering:optimizeQuality; fill-rule:evenodd; clip-rule:evenodd"
viewBox="0 0 7000 3000"
 xmlns:xlink="http://www.w3.org/1999/xlink">
 <defs>
  <style type="text/css">
   <![CDATA[
    .fil0 {fill:#3C4064}
    .fil1 {fill:#FEFEFE;fill-rule:nonzero}
    .fil2 {fill:#3C4064;fill-rule:nonzero}
   ]]>
  </style>
 </defs>
 <g id="Слой_x0020_1">
  <metadata id="CorelCorpID_0Corel-Layer"/>
  <path class="fil0" d="M829 343c-634,418 -808,1270 -391,1904 418,633 1270,808 1904,390 633,-418 808,-1270 390,-1903 -11,-17 -23,-33 -34,-50 53,355 -35,721 -247,1013 203,-391 212,-869 -4,-1277 -453,-365 -1107,-414 -1618,-77z"/>
  <path class="fil1" d="M1039 1451l7 -182 -193 0 -57 182 -221 0 298 -833 381 0 5 833 -220 0zm-47 -631l-92 294 152 0 13 -294 -73 0z"/>
  <polygon class="fil1" points="1783,1879 1256,1879 1403,1046 1611,1046 1497,1698 1816,1698 "/>
  <path class="fil1" d="M2057 2397c-110,0 -185,-26 -227,-76 -28,-36 -43,-85 -43,-146 0,-29 4,-60 10,-94l40 -231c36,-207 163,-310 380,-310 89,0 157,19 203,57 47,38 70,90 70,157 0,27 -4,54 -11,82 -8,28 -15,48 -22,62l-11 21 -205 0c20,-28 30,-60 30,-96 0,-69 -29,-104 -87,-104 -78,0 -124,45 -140,135l-39 222c-4,21 -6,42 -6,62 0,53 32,80 94,80 63,0 104,-32 121,-95l-95 0 24 -129 306 0 -18 100 -6 33c-33,180 -155,270 -368,270z"/>
  <g id="_1994453868880">
   <path class="fil2" d="M3649 1027l5 -130 -139 0 -41 130 -158 0 213 -598 274 0 3 598 -157 0zm-34 -452l-66 211 109 0 9 -211 -52 0z"/>
   <polygon class="fil2" points="3685,1825 3306,1825 3412,1227 3561,1227 3479,1695 3708,1695 "/>
   <path class="fil2" d="M3505 2641c-79,0 -133,-18 -163,-55 -20,-25 -31,-60 -31,-104 0,-21 3,-43 7,-68l29 -166c26,-148 117,-222 272,-222 65,0 113,14 146,41 34,27 50,65 50,112 0,20 -2,39 -8,59 -5,20 -10,35 -15,45l-8 15 -147 0c14,-20 21,-43 21,-69 0,-50 -20,-74 -62,-74 -56,0 -89,32 -100,97l-29 159c-2,15 -4,30 -4,44 0,38 23,57 68,57 45,0 74,-22 87,-68l-68 0 16 -92 220 0 -13 71 -4 25c-24,128 -111,193 -264,193z"/>
   <path class="fil2" d="M4065 857c0,38 28,57 83,57 55,0 83,-17 83,-51 0,-19 -10,-34 -29,-45 -18,-12 -41,-21 -68,-29 -27,-8 -54,-17 -81,-27 -26,-10 -49,-26 -68,-48 -19,-22 -28,-49 -28,-82 0,-139 89,-208 268,-208 65,0 114,12 148,37 33,24 50,58 50,102 0,16 -2,31 -6,46 -4,15 -8,25 -13,31l-7 10 -146 0c12,-13 18,-29 18,-48 0,-36 -24,-54 -71,-54 -59,0 -89,19 -89,57 0,18 10,33 29,44 18,11 41,20 68,27 27,6 54,14 81,23 27,10 50,25 69,47 19,22 28,50 28,85 0,70 -21,123 -63,157 -42,34 -107,51 -194,51 -88,0 -147,-16 -179,-47 -24,-23 -36,-55 -36,-96 0,-16 2,-32 5,-51l2 -13 150 0 -2 10c-1,5 -2,10 -2,15zm635 -428l-105 598 -150 0 105 -598 150 0zm307 598l5 -130 -138 0 -41 130 -158 0 213 -598 274 0 3 598 -158 0zm-34 -452l-65 211 109 0 9 -211 -53 0z"/>
   <path class="fil2" d="M4163 1825l-416 0 105 -598 417 0 -23 130 -268 0 -19 112 221 0 -23 129 -221 0 -17 97 268 0 -24 130zm391 0l5 -131 -138 0 -41 131 -158 0 213 -598 274 0 3 598 -158 0zm-34 -453l-65 211 108 0 10 -211 -53 0zm424 283c0,38 27,57 82,57 55,0 83,-17 83,-52 0,-18 -10,-33 -28,-44 -19,-12 -42,-22 -69,-30 -27,-7 -54,-16 -80,-26 -27,-11 -50,-27 -69,-49 -19,-21 -28,-49 -28,-81 0,-139 89,-209 268,-209 65,0 115,13 148,37 34,25 50,59 50,103 0,16 -2,31 -6,46 -4,14 -8,25 -13,31l-6 10 -147 0c12,-13 18,-29 18,-48 0,-36 -24,-54 -71,-54 -59,0 -88,19 -88,56 0,19 9,34 28,45 19,11 41,20 68,26 27,7 54,14 81,24 27,9 50,25 69,47 19,22 28,50 28,85 0,70 -21,122 -63,156 -42,34 -107,51 -194,51 -87,0 -147,-15 -179,-46 -24,-23 -36,-55 -36,-96 0,-16 2,-33 5,-51l3 -13 149 0 -2 10c-1,5 -1,10 -1,15zm634 -428l-105 598 -150 0 105 -598 150 0zm578 0l-104 598 -151 0 -104 -327 -57 327 -150 0 106 -598 154 0 103 306 54 -306 149 0zm221 609c-79,0 -133,-18 -163,-54 -20,-26 -30,-61 -30,-105 0,-21 2,-43 6,-67l29 -166c26,-149 117,-223 273,-223 64,0 112,14 146,41 33,28 49,65 49,113 0,19 -2,39 -8,59 -5,20 -10,35 -15,45l-8 15 -147 0c14,-20 22,-43 22,-69 0,-50 -21,-75 -63,-75 -56,0 -89,32 -100,97l-28 159c-3,15 -5,30 -5,44 0,39 23,58 68,58 45,0 74,-23 87,-68l-68 0 16 -93 220 0 -13 72 -4 24c-23,129 -111,193 -264,193z"/>
   <path class="fil2" d="M4188 2032c63,0 108,14 134,41 20,21 30,48 30,80 0,11 -1,23 -3,35l-12 65c-7,35 -18,65 -34,87 -17,22 -35,38 -55,47l76 242 -168 0 -70 -223 -51 0 -34 223 -159 0 105 -597 241 0zm-53 129l-62 0 -21 145 58 0c29,0 50,-7 63,-22 13,-14 19,-32 19,-56 0,-44 -19,-67 -57,-67zm570 -135c133,0 200,54 200,163 0,19 -2,38 -6,59l-29 166c-13,77 -42,134 -86,171 -45,37 -107,56 -187,56 -80,0 -136,-19 -168,-56 -21,-25 -32,-60 -32,-105 0,-20 2,-42 7,-66l29 -166c26,-148 116,-222 272,-222zm-86 486c28,0 50,-7 67,-21 16,-15 28,-41 35,-80l28 -159c1,-11 2,-21 2,-30 0,-45 -22,-67 -68,-67 -57,1 -91,33 -102,97l-28 159c-2,14 -3,28 -3,43 0,39 23,58 69,58zm726 74c-44,37 -106,55 -186,55 -80,0 -136,-19 -167,-56 -22,-25 -33,-60 -33,-105 0,-20 2,-42 6,-66l68 -382 149 0 -67 379c-2,14 -4,28 -4,43 0,39 24,58 70,58 28,0 50,-7 67,-21 16,-15 28,-41 34,-80l68 -379 149 0 -67 382c-14,78 -43,135 -87,172zm442 -138l-99 0 -32 181 -149 0 105 -597 253 0c63,0 107,14 134,43 19,22 29,50 29,85 0,11 -1,23 -4,36l-16 94c-8,46 -33,84 -73,113 -41,30 -90,45 -148,45zm26 -287l-75 0 -27 157 74 0c45,0 71,-20 78,-60l6 -35c1,-5 2,-11 2,-19 0,-9 -4,-18 -13,-28 -8,-10 -23,-15 -45,-15z"/>
  </g>
 </g>
</svg>
